<!-- Generator: Adobe Illustrator 21.1.0, SVG Export Plug-In  -->
<svg version="1.1"
	 xmlns="http://www.w3.org/2000/svg" xmlns:xlink="http://www.w3.org/1999/xlink" xmlns:a="http://ns.adobe.com/AdobeSVGViewerExtensions/3.0/"
	 x="0px" y="0px" width="409.602px" height="409.602px" viewBox="0 0 409.602 409.602"
	 style="overflow:scroll;enable-background:new 0 0 409.602 409.602;" xml:space="preserve">
<defs>
</defs>
<g>
	<path d="M159.941,116.055h160.911c3.769,0,6.828-3.055,6.828-6.828c0-3.774-3.059-6.829-6.828-6.829H159.941
		c-3.769,0-6.824,3.055-6.824,6.829C153.117,113,156.172,116.055,159.941,116.055L159.941,116.055z M159.941,116.055"/>
	<path d="M159.941,218.453h160.911c3.769,0,6.828-3.051,6.828-6.828c0-3.773-3.059-6.824-6.828-6.824H159.941
		c-3.769,0-6.824,3.051-6.824,6.824C153.117,215.402,156.172,218.453,159.941,218.453L159.941,218.453z M159.941,218.453"/>
	<path d="M159.941,320.852h160.911c3.769,0,6.828-3.051,6.828-6.825c0-3.777-3.059-6.828-6.828-6.828H159.941
		c-3.769,0-6.824,3.051-6.824,6.828C153.117,317.801,156.172,320.852,159.941,320.852L159.941,320.852z M159.941,320.852"/>
	<path d="M402.773,0H6.828C3.059,0,0,3.051,0,6.828v395.945c0,3.774,3.059,6.829,6.828,6.829h395.945
		c3.77,0,6.829-3.055,6.829-6.829V6.828C409.602,3.051,406.543,0,402.773,0L402.773,0z M395.945,395.945H13.652V13.652h382.293
		V395.945z M395.945,395.945"/>
	<path d="M85.34,126.117l16.574-8.719l16.578,8.719l-3.164-18.461l13.41-13.078l-18.535-2.691l-8.289-16.793l-8.285,16.793
		l-18.535,2.691l13.414,13.078L85.34,126.117z M85.34,126.117"/>
	<path d="M85.34,229.082l16.574-8.719l16.578,8.719l-3.164-18.457l13.41-13.074l-18.535-2.696l-8.289-16.796l-8.285,16.796
		l-18.535,2.696l13.414,13.074L85.34,229.082z M85.34,229.082"/>
	<path d="M85.34,334.508l16.574-8.719l16.578,8.719l-3.164-18.461l13.41-13.074l-18.535-2.696l-8.289-16.793l-8.285,16.793
		l-18.535,2.696l13.414,13.074L85.34,334.508z M85.34,334.508"/>
</g>
</svg>