<!-- Generator: Adobe Illustrator 21.1.0, SVG Export Plug-In  -->
<svg version="1.1"
	 xmlns="http://www.w3.org/2000/svg" xmlns:xlink="http://www.w3.org/1999/xlink" xmlns:a="http://ns.adobe.com/AdobeSVGViewerExtensions/3.0/"
	 x="0px" y="0px" width="409.602px" height="409.602px" viewBox="0 0 409.602 409.602"
	 style="enable-background:new 0 0 409.602 409.602;" xml:space="preserve">
<defs>
</defs>
<g>
	<path d="M204.801,0C91.875,0,0,91.875,0,204.801s91.875,204.801,204.801,204.801s204.801-91.875,204.801-204.801
		S317.727,0,204.801,0L204.801,0z M204.801,395.945c-105.399,0-191.149-85.75-191.149-191.144
		c0-105.399,85.75-191.149,191.149-191.149c105.394,0,191.144,85.75,191.144,191.149
		C395.945,310.195,310.195,395.945,204.801,395.945L204.801,395.945z M204.801,395.945"/>
	<path d="M204.801,40.961c-3.77,0-6.828,3.051-6.828,6.824v157.016H95.574c-3.769,0-6.828,3.051-6.828,6.824
		c0,3.777,3.059,6.828,6.828,6.828h109.227c3.765,0,6.824-3.051,6.824-6.828V47.785C211.625,44.012,208.566,40.961,204.801,40.961
		L204.801,40.961z M204.801,40.961"/>
</g>
</svg>