<!-- Generator: Adobe Illustrator 21.1.0, SVG Export Plug-In  -->
<svg version="1.1"
	 xmlns="http://www.w3.org/2000/svg" xmlns:xlink="http://www.w3.org/1999/xlink" xmlns:a="http://ns.adobe.com/AdobeSVGViewerExtensions/3.0/"
	 x="0px" y="0px" width="379.258px" height="409.602px" viewBox="0 0 379.258 409.602"
	 style="overflow:scroll;enable-background:new 0 0 379.258 409.602;" xml:space="preserve">
<defs>
</defs>
<g>
	<path d="M189.629,60.68c-71.102,0-128.949,57.847-128.949,128.949c0,53.945,33.308,101.734,83.437,120.605v69.024
		c0,4.195,3.391,7.586,7.586,7.586h7.586v15.172c0,4.195,3.391,7.586,7.586,7.586h45.512c4.191,0,7.582-3.391,7.582-7.586v-15.172
		h7.586c4.195,0,7.586-3.391,7.586-7.586v-69.024c50.129-18.871,83.437-66.66,83.437-120.605
		C318.578,118.527,260.734,60.68,189.629,60.68L189.629,60.68z M212.387,371.676c-4.196,0-7.586,3.39-7.586,7.582v15.172h-30.34
		v-15.172c0-4.192-3.391-7.582-7.586-7.582h-7.586V333.75h60.68v37.926H212.387z M225.188,297.656
		c-3.118,1.028-5.219,3.938-5.219,7.207v13.715h-60.68v-13.715c0-3.277-2.101-6.179-5.219-7.207
		c-46.777-15.383-78.218-58.797-78.218-108.027c0-62.738,51.039-113.777,113.777-113.777s113.777,51.039,113.777,113.777
		C303.406,238.859,271.969,282.273,225.188,297.656L225.188,297.656z M225.188,297.656"/>
	<path d="M189.629,45.512c4.195,0,7.586-3.391,7.586-7.586V7.586c0-4.195-3.391-7.586-7.586-7.586c-4.195,0-7.586,3.391-7.586,7.586
		v30.34C182.043,42.121,185.434,45.512,189.629,45.512L189.629,45.512z M189.629,45.512"/>
	<path d="M371.676,182.043h-30.344c-4.191,0-7.582,3.391-7.582,7.586c0,4.195,3.391,7.586,7.582,7.586h30.344
		c4.191,0,7.582-3.391,7.582-7.586C379.258,185.434,375.867,182.043,371.676,182.043L371.676,182.043z M371.676,182.043"/>
	<path d="M37.926,182.043H7.586c-4.195,0-7.586,3.391-7.586,7.586c0,4.195,3.391,7.586,7.586,7.586h30.34
		c4.195,0,7.586-3.391,7.586-7.586C45.512,185.434,42.121,182.043,37.926,182.043L37.926,182.043z M37.926,182.043"/>
	<path d="M312.996,55.539l-21.453,21.449c-2.965,2.969-2.965,7.762,0,10.727c1.48,1.48,3.422,2.222,5.363,2.222
		c1.942,0,3.883-0.742,5.364-2.222l21.449-21.449c2.969-2.969,2.969-7.762,0-10.727C320.754,52.574,315.953,52.582,312.996,55.539
		L312.996,55.539z M312.996,55.539"/>
	<path d="M76.988,291.543l-21.449,21.453c-2.965,2.965-2.965,7.758,0,10.723c1.481,1.48,3.422,2.222,5.363,2.222
		c1.942,0,3.883-0.742,5.364-2.222l21.449-21.449c2.965-2.965,2.965-7.758,0-10.727C84.75,288.578,79.957,288.578,76.988,291.543
		L76.988,291.543z M76.988,291.543"/>
	<path d="M302.27,291.543c-2.965-2.965-7.758-2.965-10.727,0c-2.965,2.969-2.965,7.762,0,10.727l21.453,21.449
		c1.477,1.48,3.418,2.222,5.363,2.222c1.942,0,3.883-0.742,5.36-2.222c2.969-2.965,2.969-7.758,0-10.723L302.27,291.543z
		 M302.27,291.543"/>
	<path d="M76.988,87.715c1.481,1.48,3.422,2.222,5.364,2.222c1.941,0,3.882-0.742,5.363-2.222c2.965-2.965,2.965-7.758,0-10.727
		L66.266,55.539c-2.969-2.965-7.762-2.965-10.727,0c-2.965,2.965-2.965,7.758,0,10.727L76.988,87.715z M76.988,87.715"/>
	<path d="M189.629,98.605c-50.191,0-91.024,40.832-91.024,91.024c0,4.195,3.391,7.586,7.586,7.586c4.196,0,7.586-3.391,7.586-7.586
		c0-41.824,34.028-75.852,75.852-75.852c4.195,0,7.586-3.39,7.586-7.586C197.215,101.996,193.824,98.605,189.629,98.605
		L189.629,98.605z M189.629,98.605"/>
</g>
</svg>