<!-- Generator: Adobe Illustrator 21.1.0, SVG Export Plug-In  -->
<svg version="1.1"
	 xmlns="http://www.w3.org/2000/svg" xmlns:xlink="http://www.w3.org/1999/xlink" xmlns:a="http://ns.adobe.com/AdobeSVGViewerExtensions/3.0/"
	 x="0px" y="0px" width="409.602px" height="409.602px" viewBox="0 0 409.602 409.602"
	 style="overflow:scroll;enable-background:new 0 0 409.602 409.602;" xml:space="preserve">
<defs>
</defs>
<g>
	<path d="M388.512,159.289h-38.321c-6.156,0-11.23-3.391-13.589-9.078c-2.36-5.691-1.161-11.684,3.183-16.035l27.094-27.09
		c3.984-3.981,6.176-9.281,6.176-14.91c0-5.637-2.192-10.93-6.176-14.922l-34.535-34.535c-7.965-7.965-21.852-7.981-29.832,0
		l-27.086,27.086c-4.356,4.347-10.364,5.562-16.035,3.195c-5.688-2.359-9.079-7.434-9.079-13.594v-38.32
		C250.312,9.457,240.852,0,229.223,0h-48.848c-11.629,0-21.086,9.457-21.086,21.086v38.32c0,6.16-3.391,11.235-9.078,13.594
		c-5.676,2.375-11.684,1.152-16.035-3.195l-27.09-27.086c-7.977-7.981-21.867-7.965-29.832,0L42.719,77.254
		c-3.981,3.984-6.172,9.285-6.172,14.922c0,5.629,2.191,10.922,6.172,14.91l27.093,27.09c4.348,4.351,5.54,10.344,3.188,16.035
		c-2.352,5.687-7.434,9.078-13.594,9.078h-38.32C9.457,159.289,0,168.746,0,180.375v48.84c0,11.637,9.457,21.097,21.086,21.097
		h38.32c6.16,0,11.235,3.391,13.594,9.079c2.359,5.687,1.16,11.679-3.188,16.035l-27.093,27.086
		c-3.981,3.984-6.172,9.285-6.172,14.914c0,5.636,2.191,10.929,6.172,14.918l34.535,34.535c7.973,7.973,21.855,7.988,29.832,0
		l27.09-27.094c4.351-4.344,10.336-5.543,16.035-3.183c5.687,2.359,9.078,7.433,9.078,13.589v38.321
		c0,11.629,9.457,21.09,21.086,21.09h48.84c11.629,0,21.09-9.461,21.09-21.09v-38.321c0-6.156,3.39-11.23,9.078-13.589
		c5.695-2.368,11.679-1.161,16.035,3.183l27.086,27.094c7.98,7.98,21.867,7.965,29.832,0l34.535-34.535
		c3.984-3.981,6.176-9.282,6.176-14.918c0-5.629-2.192-10.922-6.176-14.914l-27.094-27.086c-4.343-4.356-5.535-10.348-3.183-16.035
		c2.351-5.688,7.441-9.079,13.597-9.079h38.321c11.629,0,21.09-9.46,21.09-21.089v-48.848
		C409.602,168.746,400.141,159.289,388.512,159.289L388.512,159.289z M394.43,229.223c0,3.261-2.657,5.918-5.918,5.918h-38.321
		c-12.316,0-22.898,7.07-27.609,18.449c-4.719,11.375-2.238,23.859,6.477,32.57l27.097,27.086c2.313,2.313,2.313,6.066,0,8.375
		l-34.535,34.535c-2.309,2.305-6.062,2.321-8.375,0l-27.086-27.097c-8.719-8.715-21.195-11.18-32.57-6.477
		c-11.379,4.711-18.449,15.293-18.449,27.609v38.321c0,3.261-2.657,5.918-5.918,5.918h-48.848c-3.262,0-5.914-2.657-5.914-5.918
		v-38.321c0-12.316-7.07-22.898-18.449-27.609c-3.817-1.586-7.742-2.359-11.629-2.359c-7.692,0-15.145,3.035-20.942,8.832
		l-27.086,27.093c-2.32,2.321-6.078,2.305-8.375,0l-34.535-34.535c-2.312-2.316-2.312-6.07,0-8.375l27.094-27.086
		c8.707-8.711,11.195-21.195,6.477-32.57c-4.707-11.371-15.289-18.441-27.61-18.441h-38.32c-3.262,0-5.914-2.657-5.914-5.918
		v-48.848c0-3.262,2.652-5.914,5.914-5.914h38.32c12.321,0,22.903-7.07,27.61-18.449c4.718-11.379,2.238-23.864-6.477-32.571
		L53.445,96.355c-2.312-2.312-2.312-6.07,0-8.375L87.98,53.445c2.305-2.312,6.063-2.312,8.375,0l27.086,27.086
		c8.7,8.699,21.18,11.196,32.571,6.477c11.379-4.699,18.449-15.281,18.449-27.602v-38.32c0-3.262,2.652-5.914,5.914-5.914h48.84
		c3.269,0,5.926,2.652,5.926,5.914v38.32c0,12.321,7.07,22.903,18.449,27.61c11.39,4.718,23.859,2.23,32.57-6.477l27.086-27.086
		c2.32-2.312,6.074-2.312,8.375,0l34.535,34.535c2.313,2.313,2.313,6.067,0,8.375l-27.097,27.086
		c-8.707,8.707-11.196,21.192-6.477,32.571c4.711,11.378,15.293,18.449,27.609,18.449h38.321c3.261-0.008,5.918,2.644,5.918,5.906
		V229.223z M394.43,229.223"/>
	<path d="M204.801,136.535c-37.645,0-68.266,30.621-68.266,68.266c0,37.644,30.621,68.265,68.266,68.265
		c37.644,0,68.265-30.621,68.265-68.265C273.066,167.156,242.445,136.535,204.801,136.535L204.801,136.535z M204.801,257.895
		c-29.274,0-53.098-23.825-53.098-53.094c0-29.274,23.824-53.098,53.098-53.098c29.269,0,53.094,23.824,53.094,53.098
		C257.895,234.07,234.07,257.895,204.801,257.895L204.801,257.895z M204.801,257.895"/>
</g>
</svg>